<svg xmlns="http://www.w3.org/2000/svg" version="1.1" xmlns:xlink="http://www.w3.org/1999/xlink" xmlns:svgjs="http://svgjs.com/svgjs" width="2880" height="1200" preserveAspectRatio="none" viewBox="0 0 2880 1200"><g mask="url(&quot;#SvgjsMask2053&quot;)" fill="none"><rect width="2880" height="1200" x="0" y="0" fill="url(#SvgjsRadialGradient2054)"></rect><path d="M1035.89 413.97L1104.63 413.97L1104.63 487.75L1035.89 487.75z" fill="#e73635"></path><path d="M2107.61 732.33 a44.65 44.65 0 1 0 89.3 0 a44.65 44.65 0 1 0 -89.3 0z" stroke="#e73635"></path><path d="M354.83 775.95L389.68 775.95L389.68 834.43L354.83 834.43z" fill="#e73635"></path><path d="M1294.86 195.28a11.39 11.39 0 1 0-20.42-10.08z" stroke="#e73635"></path><path d="M241.38 646.33a50.68 50.68 0 1 0-101.22 5.37z" stroke="rgba(67, 90, 66, 1)"></path><path d="M1623.93 476.35a35.15 35.15 0 1 0 15.09-68.66z" fill="#037b0b"></path><path d="M814.19 44.62L904.51 44.62L904.51 134.94L814.19 134.94z" fill="#e73635"></path><path d="M1140.22 1073.16L1235.41 1073.16L1235.41 1166.74L1140.22 1166.74z" fill="#e73635"></path><path d="M1322.04 1083.13a57.38 57.38 0 1 0 21.36-112.76z" fill="rgba(177, 55, 170, 1)"></path><path d="M1171.36 892.27 a83.26 83.26 0 1 0 166.52 0 a83.26 83.26 0 1 0 -166.52 0z" fill="#e73635"></path><path d="M1630.23 135.54a73.98 73.98 0 1 0 123.57 81.38z" fill="rgba(177, 55, 170, 1)"></path><path d="M-38.94 1133.93 a62.96 62.96 0 1 0 125.92 0 a62.96 62.96 0 1 0 -125.92 0z" stroke="#e73635"></path><path d="M2754.64 186.37 a73.88 73.88 0 1 0 147.76 0 a73.88 73.88 0 1 0 -147.76 0z" stroke="rgba(67, 90, 66, 1)"></path><path d="M1308.33 1090.79 a11.48 11.48 0 1 0 22.96 0 a11.48 11.48 0 1 0 -22.96 0z" stroke="rgba(177, 55, 170, 1)"></path><path d="M1308.35 372.87L1317.87 372.87L1317.87 382.39L1308.35 382.39z" stroke="#037b0b"></path><path d="M808.61 475.89a17.93 17.93 0 1 0 1.3 35.83z" stroke="rgba(67, 90, 66, 1)"></path><path d="M2351.58 355.13L2367.04 355.13L2367.04 368.34L2351.58 368.34z" stroke="rgba(67, 90, 66, 1)"></path><path d="M2428.33 65.9 a96.76 96.76 0 1 0 193.52 0 a96.76 96.76 0 1 0 -193.52 0z" fill="#037b0b"></path><path d="M1220.31 369.47L1285.58 369.47L1285.58 434.74L1220.31 434.74z" stroke="#d3b714"></path><path d="M1091.15 1097.57L1159.46 1097.57L1159.46 1207.69L1091.15 1207.69z" fill="rgba(67, 90, 66, 1)"></path><path d="M2527.03 648.57 a57.19 57.19 0 1 0 114.38 0 a57.19 57.19 0 1 0 -114.38 0z" stroke="rgba(67, 90, 66, 1)"></path><path d="M1423.2 10.38 a84.07 84.07 0 1 0 168.14 0 a84.07 84.07 0 1 0 -168.14 0z" fill="#d3b714"></path><path d="M1014.1 852.71L1049.01 852.71L1049.01 963.46L1014.1 963.46z" fill="#e73635"></path><path d="M194.37 633.18a101.43 101.43 0 1 0 202.6-10.32z" stroke="#e73635"></path><path d="M2199.09 144.1a8.87 8.87 0 1 0 2.74 17.52z" stroke="#e73635"></path><path d="M1067.62 839.17L1151.48 839.17L1151.48 931.11L1067.62 931.11z" fill="rgba(67, 90, 66, 1)"></path><path d="M57.03 406.76L135.46 406.76L135.46 485.19L57.03 485.19z" fill="#e73635"></path><path d="M1916.85 261.29a62.69 62.69 0 1 0 114.12-51.94z" stroke="rgba(67, 90, 66, 1)"></path><path d="M2260.3 893.44L2365.07 893.44L2365.07 998.21L2260.3 998.21z" fill="rgba(177, 55, 170, 1)"></path><path d="M793.44 32.34L810.01 32.34L810.01 91.55L793.44 91.55z" fill="#e73635"></path></g><defs><mask id="SvgjsMask2053"><rect width="2880" height="1200" fill="#ffffff"></rect></mask><radialGradient cx="0%" cy="0%" r="3120" gradientUnits="userSpaceOnUse" id="SvgjsRadialGradient2054"><stop stop-color="rgba(245, 247, 249, 1)" offset="0.27"></stop><stop stop-color="rgba(136, 155, 179, 1)" offset="0.84"></stop></radialGradient></defs></svg>