<svg id="visual" viewBox="0 0 900 600" width="900" height="600" xmlns="http://www.w3.org/2000/svg" xmlns:xlink="http://www.w3.org/1999/xlink" version="1.1"><path d="M0 139L13.7 131C27.3 123 54.7 107 82 112C109.3 117 136.7 143 163.8 172C191 201 218 233 245.2 245C272.3 257 299.7 249 327 235C354.3 221 381.7 201 409 188C436.3 175 463.7 169 491 175C518.3 181 545.7 199 573 216C600.3 233 627.7 249 654.8 238C682 227 709 189 736.2 173C763.3 157 790.7 163 818 161C845.3 159 872.7 149 886.3 144L900 139L900 0L886.3 0C872.7 0 845.3 0 818 0C790.7 0 763.3 0 736.2 0C709 0 682 0 654.8 0C627.7 0 600.3 0 573 0C545.7 0 518.3 0 491 0C463.7 0 436.3 0 409 0C381.7 0 354.3 0 327 0C299.7 0 272.3 0 245.2 0C218 0 191 0 163.8 0C136.7 0 109.3 0 82 0C54.7 0 27.3 0 13.7 0L0 0Z" fill="#8c9bb2"></path><path d="M0 211L13.7 208C27.3 205 54.7 199 82 205C109.3 211 136.7 229 163.8 251C191 273 218 299 245.2 312C272.3 325 299.7 325 327 310C354.3 295 381.7 265 409 260C436.3 255 463.7 275 491 285C518.3 295 545.7 295 573 297C600.3 299 627.7 303 654.8 286C682 269 709 231 736.2 227C763.3 223 790.7 253 818 262C845.3 271 872.7 259 886.3 253L900 247L900 137L886.3 142C872.7 147 845.3 157 818 159C790.7 161 763.3 155 736.2 171C709 187 682 225 654.8 236C627.7 247 600.3 231 573 214C545.7 197 518.3 179 491 173C463.7 167 436.3 173 409 186C381.7 199 354.3 219 327 233C299.7 247 272.3 255 245.2 243C218 231 191 199 163.8 170C136.7 141 109.3 115 82 110C54.7 105 27.3 121 13.7 129L0 137Z" fill="#9eacc1"></path><path d="M0 253L13.7 254C27.3 255 54.7 257 82 262C109.3 267 136.7 275 163.8 301C191 327 218 371 245.2 391C272.3 411 299.7 407 327 391C354.3 375 381.7 347 409 336C436.3 325 463.7 331 491 336C518.3 341 545.7 345 573 349C600.3 353 627.7 357 654.8 343C682 329 709 297 736.2 292C763.3 287 790.7 309 818 318C845.3 327 872.7 323 886.3 321L900 319L900 245L886.3 251C872.7 257 845.3 269 818 260C790.7 251 763.3 221 736.2 225C709 229 682 267 654.8 284C627.7 301 600.3 297 573 295C545.7 293 518.3 293 491 283C463.7 273 436.3 253 409 258C381.7 263 354.3 293 327 308C299.7 323 272.3 323 245.2 310C218 297 191 271 163.8 249C136.7 227 109.3 209 82 203C54.7 197 27.3 203 13.7 206L0 209Z" fill="#b0bdd0"></path><path d="M0 445L13.7 449C27.3 453 54.7 461 82 471C109.3 481 136.7 493 163.8 501C191 509 218 513 245.2 515C272.3 517 299.7 517 327 521C354.3 525 381.7 533 409 532C436.3 531 463.7 521 491 511C518.3 501 545.7 491 573 480C600.3 469 627.7 457 654.8 451C682 445 709 445 736.2 459C763.3 473 790.7 501 818 503C845.3 505 872.7 481 886.3 469L900 457L900 317L886.3 319C872.7 321 845.3 325 818 316C790.7 307 763.3 285 736.2 290C709 295 682 327 654.8 341C627.7 355 600.3 351 573 347C545.7 343 518.3 339 491 334C463.7 329 436.3 323 409 334C381.7 345 354.3 373 327 389C299.7 405 272.3 409 245.2 389C218 369 191 325 163.8 299C136.7 273 109.3 265 82 260C54.7 255 27.3 253 13.7 252L0 251Z" fill="#bbc8d7"></path><path d="M0 601L13.7 601C27.3 601 54.7 601 82 601C109.3 601 136.7 601 163.8 601C191 601 218 601 245.2 601C272.3 601 299.7 601 327 601C354.3 601 381.7 601 409 601C436.3 601 463.7 601 491 601C518.3 601 545.7 601 573 601C600.3 601 627.7 601 654.8 601C682 601 709 601 736.2 601C763.3 601 790.7 601 818 601C845.3 601 872.7 601 886.3 601L900 601L900 455L886.3 467C872.7 479 845.3 503 818 501C790.7 499 763.3 471 736.2 457C709 443 682 443 654.8 449C627.7 455 600.3 467 573 478C545.7 489 518.3 499 491 509C463.7 519 436.3 529 409 530C381.7 531 354.3 523 327 519C299.7 515 272.3 515 245.2 513C218 511 191 507 163.8 499C136.7 491 109.3 479 82 469C54.7 459 27.3 451 13.7 447L0 443Z" fill="#c7d2de"></path></svg>